<?xml version="1.0" encoding="utf-8"?>
<!-- Generator: Adobe Illustrator 22.0.0, SVG Export Plug-In . SVG Version: 6.00 Build 0)  -->
<svg version="1.1" id="Capa_1" xmlns:xodm="http://www.corel.com/coreldraw/odm/2003"
	 xmlns="http://www.w3.org/2000/svg" xmlns:xlink="http://www.w3.org/1999/xlink" x="0px" y="0px" viewBox="0 0 1020.5 283.5"
	 style="enable-background:new 0 0 1020.5 283.5;" xml:space="preserve">
<style type="text/css">
	.st0{fill:#EF3A89;}
</style>
<g id="Capa_x0020_1">
	<g id="_2640115452304">
		<path class="st0" d="M149.5,187.8c-5.1,0-9.5-0.9-13.6-2.7c-12.5-5.4-24.9-5.3-37.4,0c-20.6,8.8-43.5-4.6-46.1-26.9
			c-1.6-14,5.9-27.8,18.7-33.7c6.1-2.8,10.7-7.1,13.9-13c2.3-4.4,4.5-8.8,7.9-12.5c15.2-16.6,42.1-13.5,53.1,6.1
			c1.4,2.5,2.8,5.1,4.2,7.6c2.9,5.2,7,8.9,12.4,11.4c13.8,6.3,21.7,20.8,19.3,35.7c-2.4,14.7-14.2,26-29.1,27.8
			C151.5,187.7,150.2,187.7,149.5,187.8L149.5,187.8z"/>
		<path class="st0" d="M121.6,54c0.1-7.1,1.1-14.1,3.2-20.9c3.4-10.9,13-18,24.3-18.6h3c0.4,0,0.7,0,1.1,0.1
			c12,1,22.1,10.9,23.7,23.2c0.6,4.7-0.2,9.2-1.7,13.7c-2.8,8.9-6.7,17.3-13.1,24.3c-3.5,3.8-7.5,6.9-12.2,9.2
			c-7.7,3.7-16.5,1.3-21.3-5.8C123.5,71.7,121.6,63.1,121.6,54L121.6,54z"/>
		<path class="st0" d="M112.8,54c-0.1,8.9-1.8,17.3-6.8,24.8c-5,7.6-13.7,10.1-22,6.1C76,81,70.2,74.7,65.8,67.1
			c-4-6.9-7-14.3-8.3-22.2c-2.4-14.8,9-29.1,23.9-30.4c0.3,0,0.7,0,1-0.1h2.9c11.8,0.6,21.4,8.3,24.7,20.1
			C111.7,41,112.6,47.4,112.8,54z"/>
		<path class="st0" d="M179.1,120.3c-2.7,0-5-0.2-7.3-0.7c-7.8-1.9-12.3-8.8-11.6-17.3c0.6-6.7,2.8-12.8,6.5-18.4
			c4.1-6.4,9.1-12,15.3-16.3c14.8-10.4,35.4-1.4,37.9,16.5c1.2,8.5-1.4,15.8-7.9,21.6c-7.3,6.4-15.3,11.4-24.9,13.7
			C184.4,119.9,181.6,120.2,179.1,120.3L179.1,120.3z"/>
		<path class="st0" d="M56.4,120.3c-9.4-0.1-17.3-3.1-24.6-7.7c-3.1-1.9-6-4-8.8-6.4c-7.6-6.7-10.5-15.2-7.9-25
			c2.6-9.9,9.5-15.9,19.6-17.7c6.4-1.1,12.5,0.2,17.7,4.1c8.1,6.1,14.6,13.5,18.7,22.9c1.9,4.3,2.9,8.7,3,13.4
			c0.2,8.6-5.4,15.1-13.9,16.1C58.7,120.1,57.2,120.2,56.4,120.3z"/>
		<path class="st0" d="M832.1,90.3c-0.3,0-0.6,0-1,0.1c-1.6,7.2-3.2,14.4-4.7,21.7c-2.4,12.1-2.4,12.1,10.1,11.2c0.5,0,1,0,1.5-0.1
			c1-0.1,1.3-0.6,1.1-1.6C836.8,111.2,834.5,100.8,832.1,90.3L832.1,90.3z M850.8,34.8c9.1-0.1,9.2-0.2,11.8,8.6
			c12,41.3,23.9,82.7,36.1,124c1.1,3.6,0.1,3.9-3,4.3c-14.1,1.7-28.1,3.5-42.2,5.5c-3.6,0.5-4.9-0.8-5.6-4.1
			c-1.1-5.1-2.8-10.1-3.8-15.2c-0.6-2.7-1.8-3.4-4.3-3.3c-5.4,0.2-10.8,0.2-16.2,0c-2.9-0.1-4,1.1-4.5,3.8c-1,5.1-2.4,10.2-3.3,15.3
			c-0.6,3.1-1.9,4-5,3.7c-11.8-1.2-23.7-2.3-35.6-3.5c-2.6-0.2-5.2-0.7-7.8-0.6c-3.4,0.1-4.5-0.4-3.3-4.3
			c6.3-20.4,12.3-40.9,18.4-61.4c6.4-21.6,12.9-43.1,19.2-64.7c1.3-4.4,3.1-6.1,8-6.1C823.4,36.4,837.1,35.5,850.8,34.8L850.8,34.8z
			"/>
		<path class="st0" d="M439.9,91.1c-0.5-0.2-0.7-0.3-0.8-0.3c-0.1,0-0.3,0.1-0.3,0.2c-1.5,7-2.9,14-4.6,21
			c-2.8,11.8-2.9,11.8,9.2,11.4c0.5,0,1,0,1.5,0c1.9,0.1,2.1-0.9,1.7-2.5C444.3,110.8,442.1,100.8,439.9,91.1L439.9,91.1z
			 M459.7,177.4c-2,0.6-3.3-0.7-3.9-3.7c-1.2-5.4-3-10.7-4.3-16c-0.6-2.5-1.8-3.1-4.1-3c-5.6,0.1-11.1,0.2-16.7,0
			c-2.5-0.1-3.4,0.9-3.9,3.2c-1.1,5.3-2.5,10.5-3.5,15.8c-0.5,3-1.7,4.1-4.8,3.8c-11.8-1.3-23.7-2.3-35.5-3.4
			c-2.6-0.2-5.2-0.8-7.8-0.6c-3.9,0.2-4.7-1-3.6-4.7c12.9-42.8,25.7-85.5,38.5-128.3c0.7-2.3,1.8-3.3,4.4-3.4
			c16.7-0.6,33.3-1.3,49.9-2.3c3.5-0.2,3.6,1.9,4.2,4c8.9,30.4,17.7,60.7,26.5,91.1c3.6,12.4,7.2,24.7,10.9,37.1
			c0.9,3.1,1.2,4.7-3.1,5.2C488.8,173.3,474.8,175.4,459.7,177.4L459.7,177.4z"/>
		<g>
			<path class="st0" d="M314.8,99.6c-0.1,2.1,0.7,2.9,2.8,3c5.9,0.2,11.4-1.1,15.9-5c5.5-4.8,7.2-13,3.9-19.2
				c-3-5.6-9.5-7.9-16.9-6.7c-3.9,0.6-5.2,2-5,5.9c0.2,3.4-0.3,6.8-0.5,10.3L314.8,99.6z M266.7,43.6c0-3.5,0.6-5.4,4.6-6.4
				c20.9-5.2,42-8.5,63.5-5.2c18.4,2.8,34.8,9.9,44,27.4c11.7,22.5,6.5,54.8-27,67.4c-9.8,3.7-20,5.9-30.5,6.2c-8,0.3-8,0.4-8,8.2
				c0,11.9-0.1,23.9,0.1,35.8c0,3.2-0.8,4.2-4.1,4.2c-12.9-0.2-25.8-0.2-38.7,0c-3.8,0.1-4.6-1.2-4.6-4.7L266.7,43.6z"/>
		</g>
		<path class="st0" d="M957.1,28.8c13.9,0.3,25.4,1.8,36.4,5.7c3.2,1.1,4.6,2.6,4.2,6.3c-1.2,10.9-2.1,21.8-3,32.7
			c-0.3,3.3-1.3,4-4.6,3c-10.5-3.4-21.2-5.1-32.3-4.1c-3.1,0.3-6.1,0.8-9,2.1c-2.5,1.1-4.4,2.7-4.4,5.8c0,3.2,2.1,4.8,4.6,5.6
			c3.7,1.2,7.5,2,11.5,2c6.4,0,12.8-0.3,19,1.5c16.9,4.9,26.5,18,26.8,35.3v1.2c0,0.8,0,1.6-0.1,2.4c-2.1,35.1-26.1,49.9-53.9,52.7
			c-18.2,1.8-34.2-5.2-50.4-11.9c-1.7-0.7-2.4-1.8-2.1-3.8c1.4-11.8,2.7-23.7,3.9-35.5c0.3-3.1,1.5-2.8,3.8-1.7
			c12.5,6.2,25.7,9.1,39.7,8.6c2.8-0.1,5.5-0.6,8.1-1.7c2.7-1.1,4.3-2.9,4.4-5.9c0.1-3.1-2-4.8-4.6-5.7c-4.6-1.7-9.4-2.3-14.4-2.2
			c-9.4,0.3-18.1-1.8-25.7-7.6c-16.9-12.9-20.6-39.9-7.9-59.4c9-13.8,22.3-21.2,38.2-24.2C949.9,29.1,954.6,28.5,957.1,28.8z"/>
		<path class="st0" d="M697.7,129.1c0-14.7-0.1-29.4,0.1-44.1c0-3.2-0.8-4.4-4.1-4.1c-7.2,0.6-14.3,0.8-21.5,1.3
			c-3.3,0.3-4.6-0.5-4.5-4.2c0.5-13.2,0.9-26.4,1.1-39.7c0.1-3.1,1.2-3.7,4-3.7c34.1-0.1,68.3-0.2,102.4-0.5c3.3,0,4.6,0.7,4.4,4.3
			c-0.5,11.3-1,22.5-0.9,33.8c0,4.8-2,5.8-6.1,5.8c-6.7-0.1-13.4,0.3-20.1,0.3c-3,0-4.3,0.9-4.6,4.1c-1,14.3-2.2,28.6-3.4,43
			c-1.3,15.6-2.6,31.2-3.8,46.9c-0.2,2.2-0.8,3.1-3.1,3.2c-12.1,0.5-24.1,1.1-36.2,1.8c-3.3,0.2-4.1-0.8-4.1-4
			c0.2-14.7,0.1-29.4,0.1-44.1C697.5,129.1,697.6,129.1,697.7,129.1z"/>
		<path class="st0" d="M522.8,128.9c0-14.2-0.2-28.4,0.1-42.7c0.1-4.8-1.5-5.8-5.8-5.4c-6.8,0.6-13.7,0.9-20.5,1.3
			c-2.4,0.2-3.9-0.1-3.8-3.3c0.4-13.2,0.7-26.5,0.8-39.7c0-3.7,1.4-4.6,4.9-4.6c33.7,0,67.3-0.2,101-0.5c3.7,0,5.2,0.6,5,4.8
			c-0.6,11.1-0.9,22.2-0.8,33.3c0.1,4.7-1.8,5.9-6,5.8c-6.7-0.1-13.4,0.3-20.1,0.3c-3.3,0-4.5,1.2-4.8,4.5
			c-2.2,29.5-4.6,58.9-6.8,88.4c-0.2,2.6-0.5,4.1-3.8,4.2c-11.4,0.4-22.8,0.8-34.2,1.8c-4.8,0.4-5.6-1.3-5.5-5.6
			C522.9,157.4,522.7,143.1,522.8,128.9C522.7,128.9,522.8,128.9,522.8,128.9L522.8,128.9z"/>
		<path class="st0" d="M611.2,108.4c0-21.4,0.1-42.8-0.1-64.2c0-3.5,0.8-4.9,4.5-5.1c15.3-0.7,30.7-1.5,46-2.4
			c3.4-0.2,3.7,1.2,3.5,4c-3.7,43.6-7.3,87.2-10.8,130.9c-0.2,2.6-0.9,3.7-3.7,3.8c-11.6,0.4-23.2,1-34.7,1.8
			c-3.7,0.3-4.7-0.7-4.7-4.5C611.3,151.3,611.2,129.8,611.2,108.4z"/>
		<path class="st0" d="M464.5,268c2.1,0,3.7-1.7,3.7-3.8v-15.6c0-1,0.8-1.8,1.8-1.8h4.1c5.5,0,9.9-1.7,13.4-5.3
			c3.5-3.6,5.3-7.9,5.3-12.9s-1.7-9.3-5.3-12.9c-3.4-3.6-7.9-5.4-13.4-5.4H455c-2.1,0-3.8,1.6-3.8,3.7v50.1c0,2.1,1.7,3.8,3.8,3.8
			H464.5L464.5,268z M468.3,226.4c0-1,0.8-1.8,1.8-1.8h1.8c2.5,0,4.2,1.8,4.2,4.1c0,2.5-1.8,4.2-4.2,4.2h-1.8c-1,0-1.8-0.9-1.8-1.8
			V226.4z M532.4,268c2.1,0,3.7-1.7,3.7-3.8v-7.7c0-2.1-1.6-3.8-3.7-3.8h-14.7c-1,0-1.8-0.8-1.8-1.8v-3.7c0-1,0.8-1.8,1.8-1.8H532
			c2.1,0,3.7-1.7,3.7-3.8V236c0-2.1-1.6-3.8-3.7-3.8h-14.3c-1,0-1.8-0.8-1.8-1.8v-3c0-1,0.8-1.7,1.8-1.7H530c2.1,0,3.7-1.7,3.7-3.8
			V214c0-2.1-1.8-3.7-3.7-3.7h-27.4c-2.1,0-3.8,1.6-3.8,3.7v50.1c0,2.1,1.7,3.8,3.8,3.8L532.4,268L532.4,268z M550.3,226.4
			c1,0,1.8,0.8,1.8,1.8v36c0,2.1,1.7,3.8,3.8,3.8h9.5c2.1,0,3.7-1.7,3.7-3.8v-36c0-1,0.8-1.8,1.8-1.8h7.7c2.1,0,3.8-1.7,3.8-3.8V214
			c0-2.1-1.7-3.7-3.8-3.7h-36.2c-2.1,0-3.7,1.6-3.7,3.7v8.6c0,2.1,1.6,3.8,3.7,3.8H550.3L550.3,226.4z M629.4,269.1
			c6.2,0,11.1-1.7,14.9-5.2c3.7-3.5,5.6-7.9,5.6-13.1c0-4.7-1.3-8.4-3.9-11.4c-2.6-2.9-6.9-5.6-12.9-8.2c-5.8-2.4-6-4.1-6-5.3
			c0-1.6,1-2.4,3.2-2.4c2,0,3.7,0.4,5.3,1.2c2.6,1.5,4.8,1.3,6.4-0.8l3.3-4.4c1.8-2.2,1.4-5.4-1.1-6.9c-4.5-2.4-9.2-3.6-14.1-3.6
			c-6.1,0-11.1,1.6-14.7,4.8c-3.6,3.2-5.4,7.2-5.4,12.2c0,8.8,4.7,14.4,16.1,19.5c5.6,2.5,6.8,4,6.8,6c0,2.1-1.2,3.1-3.7,3.1
			c-2.8,0-5.5-1-8.3-2.8c-2.3-1.8-5.4-1.6-7.1,0.7l-3.4,4.6c-1.5,1.9-1.4,4.6,0.6,6.1C616.1,267.2,622.3,269.1,629.4,269.1
			L629.4,269.1z M669.2,268c2.1,0,3.7-1.7,3.7-3.8v-15.7c0-1,0.8-1.8,1.8-1.8h14.7c1,0,1.7,0.8,1.7,1.8v15.7c0,2.1,1.7,3.8,3.8,3.8
			h9.5c2.1,0,3.7-1.7,3.7-3.8V214c0-2.1-1.8-3.7-3.7-3.7h-9.5c-2.1,0-3.8,1.6-3.8,3.7v14.6c0,1-0.8,1.8-1.7,1.8h-14.7
			c-1,0-1.8-0.9-1.8-1.8V214c0-2.1-1.6-3.7-3.7-3.7h-9.5c-2.1,0-3.8,1.6-3.8,3.7v50.1c0,2.1,1.7,3.8,3.8,3.8H669.2z M714.3,239.1
			c0,8.5,2.9,15.6,8.8,21.4c5.9,5.8,13.1,8.7,21.7,8.7c8.6,0,15.8-2.9,21.7-8.7c5.9-5.8,8.8-12.9,8.8-21.4c0-8.4-2.9-15.5-8.8-21.3
			c-5.9-5.8-13.1-8.7-21.7-8.7c-8.6,0-15.8,2.9-21.7,8.7C717.3,223.6,714.3,230.6,714.3,239.1z M744.9,253c-3.8,0-7-1.4-9.6-4
			c-2.5-2.7-3.8-6-3.8-9.9c0-3.9,1.3-7.2,3.8-9.8c2.6-2.7,5.8-4.1,9.6-4.1c3.7,0,6.9,1.4,9.5,4.1c2.6,2.6,3.9,5.9,3.9,9.8
			c0,3.9-1.3,7.2-3.9,9.9C751.8,251.6,748.6,253,744.9,253z M794.7,268c2.1,0,3.7-1.7,3.7-3.8v-15.6c0-1,0.8-1.8,1.8-1.8h4.1
			c5.5,0,9.9-1.7,13.4-5.3c3.5-3.6,5.2-7.9,5.2-12.9s-1.7-9.3-5.2-12.9c-3.4-3.6-7.9-5.4-13.4-5.4h-19.2c-2.1,0-3.8,1.6-3.8,3.7
			v50.1c0,2.1,1.7,3.8,3.8,3.8H794.7z M798.5,226.4c0-1,0.8-1.8,1.8-1.8h1.8c2.5,0,4.2,1.8,4.2,4.1c0,2.5-1.8,4.2-4.2,4.2h-1.8
			c-1,0-1.8-0.9-1.8-1.8V226.4z"/>
	</g>
</g>
</svg>
